<svg id="Hand" xmlns="http://www.w3.org/2000/svg" width="28.557" height="38.111" viewBox="0 0 28.557 38.111">
  <g id="Group_25" data-name="Group 25">
    <path id="Path_9" data-name="Path 9" d="M31.957,37.035h0A2.272,2.272,0,0,1,29.7,34.778V13.657A2.272,2.272,0,0,1,31.957,11.4h0a2.272,2.272,0,0,1,2.257,2.257V34.82A2.263,2.263,0,0,1,31.957,37.035Z" transform="translate(-22.306 -7.61)" fill="#ffc258"/>
    <path id="Path_10" data-name="Path 10" d="M44.957,31.924h0A2.272,2.272,0,0,1,42.7,29.668V4.757A2.272,2.272,0,0,1,44.957,2.5h0a2.272,2.272,0,0,1,2.257,2.257V29.71A2.236,2.236,0,0,1,44.957,31.924Z" transform="translate(-29.771 -2.5)" fill="#ffc258"/>
    <path id="Path_11" data-name="Path 11" d="M58.057,37.035h0A2.272,2.272,0,0,1,55.8,34.778V13.657A2.272,2.272,0,0,1,58.057,11.4h0a2.272,2.272,0,0,1,2.257,2.257V34.82A2.263,2.263,0,0,1,58.057,37.035Z" transform="translate(-37.292 -7.61)" fill="#ffc258"/>
    <path id="Path_12" data-name="Path 12" d="M71.057,42.145h0A2.272,2.272,0,0,1,68.8,39.888V22.557A2.272,2.272,0,0,1,71.057,20.3h0a2.272,2.272,0,0,1,2.257,2.257V39.931A2.236,2.236,0,0,1,71.057,42.145Z" transform="translate(-44.757 -12.72)" fill="#ffc258"/>
    <path id="Path_13" data-name="Path 13" d="M25.224,60.89h0a2.7,2.7,0,0,1-3.747-.511l-8.6-11.157a2.7,2.7,0,0,1,.511-3.747h0a2.7,2.7,0,0,1,3.747.511l8.6,11.157A2.657,2.657,0,0,1,25.224,60.89Z" transform="translate(-12.337 -26.866)" fill="#ffc258"/>
    <circle id="Ellipse_32" data-name="Ellipse 32" cx="10.56" cy="10.56" r="10.56" transform="translate(7.436 16.99)" fill="#ffc258"/>
  </g>
</svg>
